<svg xmlns="http://www.w3.org/2000/svg" width="157.613" height="139.446" viewBox="0 0 157.613 139.446">
  <path id="Oddaa" d="M110.6,801.294h84.624l-4.781-4.781-5.578-4.143-4.3-2.072-6.375-4.622-4.462-5.259-4.3-5.737-1.116-2.391v-8.765h6.215l5.1,3.187,3.506.956,3.825,1.275H191.4l3.825-2.231,1.912-1.594,3.347-1.594h3.665l3.665,1.594,3.665,2.55h8.765l1.594-.956,1.912-2.231.956-2.231v-2.391l1.116-2.072-1.116-21.355,1.116-3.187,4.462-4.622,2.391-3.665V718.9l-3.984-2.231h-5.737l-2.709-2.072-2.869-2.072V700.256l.956-6.853-.956-4.622-3.984-2.231-3.984-.8h-8.925l-1.912-2.869-1.434-2.709v-4.781l-1.912-6.534-3.825-2.709-4.94-1.753-7.331-1.594-4.94-.956-4.462,2.55-5.418,3.028h-9.243l-6.375-1.275-6.056-2.55-19.283.8-6.693,1.753-2.231,4.3-1.753,8.924-.8,2.55-11,.956L95.3,685.753,91.158,689.9l-3.506,5.259v7.809l-1.275,3.825-6.215,5.737-5.1,7.49v7.809l1.275,4.3,3.825,4.3,3.028,3.347V754.6l6.375,5.259,1.594,1.434,22.949-1.434,4.3,1.434,3.984,2.231h6.056l2.231-2.231,4.462-1.434h4.94l.637,1.434-.637,7.65-1.434,5.737-.637,4.622-4.781,6.375-4.144,3.187-5.418,4.462-7.331,3.187-5.1,3.984Z" transform="translate(-75.062 -661.849)" fill="#02943f"/>
</svg>
